<mxfile host="app.diagrams.net" agent="Mozilla/5.0 (Windows NT 10.0; Win64; x64) AppleWebKit/537.36 (KHTML, like Gecko) Chrome/133.0.0.0 Safari/537.36 OPR/118.0.0.0 (Edition Yx GX)" version="27.0.5">
  <diagram name="Страница — 1" id="8z71WTpktYbtwJwMkliS">
    <mxGraphModel dx="1397" dy="797" grid="1" gridSize="10" guides="1" tooltips="1" connect="1" arrows="1" fold="1" page="1" pageScale="1" pageWidth="827" pageHeight="1169" math="0" shadow="0">
      <root>
        <mxCell id="0" />
        <mxCell id="1" parent="0" />
        <mxCell id="NrWZca9VOyHjJfnjBteP-5" style="edgeStyle=orthogonalEdgeStyle;rounded=0;orthogonalLoop=1;jettySize=auto;html=1;entryX=0;entryY=0.5;entryDx=0;entryDy=0;" edge="1" parent="1" source="NrWZca9VOyHjJfnjBteP-1" target="NrWZca9VOyHjJfnjBteP-4">
          <mxGeometry relative="1" as="geometry">
            <Array as="points">
              <mxPoint x="190" y="400" />
            </Array>
          </mxGeometry>
        </mxCell>
        <mxCell id="NrWZca9VOyHjJfnjBteP-13" style="edgeStyle=orthogonalEdgeStyle;rounded=0;orthogonalLoop=1;jettySize=auto;html=1;entryX=0;entryY=0.5;entryDx=0;entryDy=0;" edge="1" parent="1" source="NrWZca9VOyHjJfnjBteP-1" target="NrWZca9VOyHjJfnjBteP-12">
          <mxGeometry relative="1" as="geometry">
            <Array as="points">
              <mxPoint x="190" y="520" />
            </Array>
          </mxGeometry>
        </mxCell>
        <mxCell id="NrWZca9VOyHjJfnjBteP-1" value="заявка заказчика" style="html=1;dashed=0;whiteSpace=wrap;shape=mxgraph.dfd.externalEntity" vertex="1" parent="1">
          <mxGeometry x="120" y="200" width="130" height="100" as="geometry" />
        </mxCell>
        <mxCell id="NrWZca9VOyHjJfnjBteP-2" value="4" style="autosize=1;part=1;resizable=0;strokeColor=inherit;fillColor=inherit;gradientColor=inherit;" vertex="1" parent="NrWZca9VOyHjJfnjBteP-1">
          <mxGeometry width="30" height="30" relative="1" as="geometry">
            <mxPoint x="10" y="10" as="offset" />
          </mxGeometry>
        </mxCell>
        <mxCell id="NrWZca9VOyHjJfnjBteP-10" style="edgeStyle=orthogonalEdgeStyle;rounded=0;orthogonalLoop=1;jettySize=auto;html=1;entryX=0.25;entryY=1;entryDx=0;entryDy=0;" edge="1" parent="1" source="NrWZca9VOyHjJfnjBteP-4" target="NrWZca9VOyHjJfnjBteP-7">
          <mxGeometry relative="1" as="geometry">
            <Array as="points">
              <mxPoint x="333" y="295" />
            </Array>
          </mxGeometry>
        </mxCell>
        <mxCell id="NrWZca9VOyHjJfnjBteP-11" value="Информация&amp;nbsp;&lt;div&gt;о клиентах&lt;/div&gt;" style="edgeLabel;html=1;align=center;verticalAlign=middle;resizable=0;points=[];" vertex="1" connectable="0" parent="NrWZca9VOyHjJfnjBteP-10">
          <mxGeometry x="-0.6005" y="1" relative="1" as="geometry">
            <mxPoint x="23" y="6" as="offset" />
          </mxGeometry>
        </mxCell>
        <mxCell id="NrWZca9VOyHjJfnjBteP-4" value="Проверка и внесение клиентов" style="rounded=1;whiteSpace=wrap;html=1;arcSize=30;" vertex="1" parent="1">
          <mxGeometry x="280" y="360" width="120" height="80" as="geometry" />
        </mxCell>
        <mxCell id="NrWZca9VOyHjJfnjBteP-6" value="1" style="html=1;dashed=0;whiteSpace=wrap;shape=mxgraph.dfd.dataStoreID;align=left;spacingLeft=3;points=[[0,0],[0.5,0],[1,0],[0,0.5],[1,0.5],[0,1],[0.5,1],[1,1]];" vertex="1" parent="1">
          <mxGeometry x="280" y="200" width="120" height="30" as="geometry" />
        </mxCell>
        <mxCell id="NrWZca9VOyHjJfnjBteP-8" style="edgeStyle=orthogonalEdgeStyle;rounded=0;orthogonalLoop=1;jettySize=auto;html=1;entryX=0.25;entryY=0;entryDx=0;entryDy=0;" edge="1" parent="1" source="NrWZca9VOyHjJfnjBteP-7" target="NrWZca9VOyHjJfnjBteP-4">
          <mxGeometry relative="1" as="geometry">
            <Array as="points">
              <mxPoint x="310" y="260" />
              <mxPoint x="310" y="260" />
            </Array>
          </mxGeometry>
        </mxCell>
        <mxCell id="NrWZca9VOyHjJfnjBteP-14" style="edgeStyle=orthogonalEdgeStyle;rounded=0;orthogonalLoop=1;jettySize=auto;html=1;entryX=0.5;entryY=0;entryDx=0;entryDy=0;" edge="1" parent="1" source="NrWZca9VOyHjJfnjBteP-7" target="NrWZca9VOyHjJfnjBteP-12">
          <mxGeometry relative="1" as="geometry">
            <Array as="points">
              <mxPoint x="355" y="280" />
              <mxPoint x="440" y="280" />
              <mxPoint x="440" y="440" />
              <mxPoint x="500" y="440" />
            </Array>
          </mxGeometry>
        </mxCell>
        <mxCell id="NrWZca9VOyHjJfnjBteP-24" value="Информация о клиентах&lt;div&gt;необходимая для&amp;nbsp;&lt;/div&gt;&lt;div&gt;оформление заявки&lt;/div&gt;" style="edgeLabel;html=1;align=center;verticalAlign=middle;resizable=0;points=[];" vertex="1" connectable="0" parent="NrWZca9VOyHjJfnjBteP-14">
          <mxGeometry x="0.2994" relative="1" as="geometry">
            <mxPoint y="-92" as="offset" />
          </mxGeometry>
        </mxCell>
        <mxCell id="NrWZca9VOyHjJfnjBteP-7" value="список клиентов" style="text;html=1;align=center;verticalAlign=middle;whiteSpace=wrap;rounded=0;" vertex="1" parent="1">
          <mxGeometry x="310" y="200" width="90" height="30" as="geometry" />
        </mxCell>
        <mxCell id="NrWZca9VOyHjJfnjBteP-17" style="edgeStyle=orthogonalEdgeStyle;rounded=0;orthogonalLoop=1;jettySize=auto;html=1;entryX=0.5;entryY=1;entryDx=0;entryDy=0;endArrow=none;startFill=1;startArrow=classic;" edge="1" parent="1" source="NrWZca9VOyHjJfnjBteP-12" target="NrWZca9VOyHjJfnjBteP-16">
          <mxGeometry relative="1" as="geometry">
            <Array as="points">
              <mxPoint x="530" y="230" />
            </Array>
          </mxGeometry>
        </mxCell>
        <mxCell id="NrWZca9VOyHjJfnjBteP-21" style="edgeStyle=orthogonalEdgeStyle;rounded=0;orthogonalLoop=1;jettySize=auto;html=1;entryX=0.5;entryY=1;entryDx=0;entryDy=0;" edge="1" parent="1" source="NrWZca9VOyHjJfnjBteP-12" target="NrWZca9VOyHjJfnjBteP-20">
          <mxGeometry relative="1" as="geometry">
            <Array as="points">
              <mxPoint x="700" y="500" />
            </Array>
          </mxGeometry>
        </mxCell>
        <mxCell id="NrWZca9VOyHjJfnjBteP-25" value="Заявки&lt;div&gt;&amp;nbsp;клиента&lt;/div&gt;" style="edgeLabel;html=1;align=center;verticalAlign=middle;resizable=0;points=[];" vertex="1" connectable="0" parent="NrWZca9VOyHjJfnjBteP-21">
          <mxGeometry x="-0.022" y="1" relative="1" as="geometry">
            <mxPoint x="-29" y="41" as="offset" />
          </mxGeometry>
        </mxCell>
        <mxCell id="NrWZca9VOyHjJfnjBteP-26" value="&lt;div&gt;Заявки&lt;/div&gt;&lt;div&gt;&amp;nbsp;клиента&lt;/div&gt;" style="edgeLabel;html=1;align=center;verticalAlign=middle;resizable=0;points=[];" vertex="1" connectable="0" parent="NrWZca9VOyHjJfnjBteP-21">
          <mxGeometry x="-0.022" y="1" relative="1" as="geometry">
            <mxPoint x="71" y="91" as="offset" />
          </mxGeometry>
        </mxCell>
        <mxCell id="NrWZca9VOyHjJfnjBteP-12" value="Внесение заявки" style="rounded=1;whiteSpace=wrap;html=1;arcSize=30;" vertex="1" parent="1">
          <mxGeometry x="440" y="480" width="120" height="80" as="geometry" />
        </mxCell>
        <mxCell id="NrWZca9VOyHjJfnjBteP-16" value="2" style="html=1;dashed=0;whiteSpace=wrap;shape=mxgraph.dfd.dataStoreID;align=left;spacingLeft=3;points=[[0,0],[0.5,0],[1,0],[0,0.5],[1,0.5],[0,1],[0.5,1],[1,1]];" vertex="1" parent="1">
          <mxGeometry x="480" y="200" width="120" height="30" as="geometry" />
        </mxCell>
        <mxCell id="NrWZca9VOyHjJfnjBteP-18" value="каталог домов" style="text;html=1;align=center;verticalAlign=middle;whiteSpace=wrap;rounded=0;" vertex="1" parent="1">
          <mxGeometry x="510" y="200" width="90" height="30" as="geometry" />
        </mxCell>
        <mxCell id="NrWZca9VOyHjJfnjBteP-22" style="edgeStyle=orthogonalEdgeStyle;rounded=0;orthogonalLoop=1;jettySize=auto;html=1;entryX=1;entryY=0.75;entryDx=0;entryDy=0;" edge="1" parent="1" source="NrWZca9VOyHjJfnjBteP-20" target="NrWZca9VOyHjJfnjBteP-12">
          <mxGeometry relative="1" as="geometry">
            <Array as="points">
              <mxPoint x="740" y="540" />
            </Array>
          </mxGeometry>
        </mxCell>
        <mxCell id="NrWZca9VOyHjJfnjBteP-20" value="3" style="html=1;dashed=0;whiteSpace=wrap;shape=mxgraph.dfd.dataStoreID;align=left;spacingLeft=3;points=[[0,0],[0.5,0],[1,0],[0,0.5],[1,0.5],[0,1],[0.5,1],[1,1]];" vertex="1" parent="1">
          <mxGeometry x="640" y="200" width="120" height="30" as="geometry" />
        </mxCell>
        <mxCell id="NrWZca9VOyHjJfnjBteP-23" value="Список заявок" style="text;html=1;align=center;verticalAlign=middle;whiteSpace=wrap;rounded=0;" vertex="1" parent="1">
          <mxGeometry x="670" y="200" width="90" height="30" as="geometry" />
        </mxCell>
      </root>
    </mxGraphModel>
  </diagram>
</mxfile>
